<svg id="Layer_1" data-name="Layer 1" xmlns="http://www.w3.org/2000/svg" viewBox="0 0 5591.27 1316.3"><defs><style>.cls-1{isolation:isolate;font-size:731.97px;font-family:Poppins-Bold, Poppins;font-weight:700;letter-spacing:-0.03em;}.cls-1,.cls-2{fill:#170a1c;}</style></defs><g id="icon_1" data-name="icon 1"><text class="cls-1" transform="translate(1703.08 863.88)">GoPacking</text><path class="cls-2" d="M793.46.41,790,.73V5.86a87.13,87.13,0,0,0,.49,8.7l.49,3.58H863l.48-2.85A70.94,70.94,0,0,0,864,6.67c0-4.55-.24-5.94-1.3-6.34C861.27-.16,799.3-.08,793.46.41Z"/><path class="cls-2" d="M938.31,7.4c-.17.59-.82,4.56-1.39,9-.81,5.69-.81,8.13-.24,8.3s7.32,1.29,15.13,2.43C967.74,29.53,987.35,33,999,35.54c4.13,1,7.89,1.46,8.21,1.06.73-.81,4.13-16.59,3.66-17-.81-.81-36.11-7.56-52.21-10C949.29,8.21,941,6.92,940.18,6.75A1.77,1.77,0,0,0,938.31,7.4Z"/><path class="cls-2" d="M708.63,8.13c-2.44.41-11.06,1.87-19.11,3.18-13.83,2.36-46,8.7-46.63,9.27-.49.41,3.18,16.18,3.91,16.91.32.41,7.72-.73,16.34-2.52,15.05-3.17,39.55-7.48,49.94-8.85,2.6-.32,4.8-.81,4.8-1.06s-.49-4.31-1.14-9.18c-.82-7.09-1.3-8.71-2.36-8.63C713.67,7.32,711.07,7.73,708.63,8.13Z"/><path class="cls-2" d="M1080.39,47.5c-1.46,4.72-2.52,8.7-2.36,8.78a62.78,62.78,0,0,0,5.94,2.11c10.57,3.42,34.07,12,47.49,17.41,7.32,3,13.57,5.37,13.91,5.37.65,0,7.72-16.18,7.24-16.59-2-1.55-67.1-25.7-69.54-25.7C1083.07,38.88,1081.85,42.78,1080.39,47.5Z"/><path class="cls-2" d="M562,43.35C549.14,47.74,530.36,54.9,515.31,61l-14,5.69,2.95,6.59c1.54,3.66,3.17,7.48,3.58,8.54.65,1.77.73,1.77,3.74.49,14.8-6.35,34.08-13.58,60.26-22.78,2.28-.81,4.24-1.87,4.24-2.28,0-1.38-5.21-16.75-5.7-16.66C570.12,40.59,566.38,41.9,562,43.35Z"/><path class="cls-2" d="M1215.56,104.75l-4.31,8.06,7.16,3.82c12.12,6.59,27.65,15.69,41.9,24.56,7.49,4.64,13.75,8.38,13.83,8.21s2.28-3.49,4.88-7.4,4.64-7.32,4.64-7.48c0-.4-24.56-15.78-35-21.8-7.16-4.22-28.47-16.1-28.79-16.1C1219.87,96.62,1217.84,100.28,1215.56,104.75Z"/><path class="cls-2" d="M422,106c-16.67,9.51-44.89,26.67-50.83,31.07-.49.32,9.19,14.87,10,14.87.41,0,4.64-2.52,9.36-5.61,10.33-6.66,34.23-21,44.16-26.43a61.67,61.67,0,0,0,7.65-4.63c.32-.59-7.49-16.35-8.06-16.11C434.22,99.15,428.69,102.23,422,106Z"/><path class="cls-2" d="M1338.61,184.78c-2.95,3.74-5.36,7.08-5.36,7.24a58.84,58.84,0,0,0,6.34,5.53c9.92,8,32.37,27.49,40.18,34.83,4,3.57,7.4,6.58,7.81,6.58s3.33-2.77,6.66-6.18l6.1-6.18-6.91-6.49c-11.3-10.74-44.73-39.37-48.47-41.57C1344.47,178.19,1341.79,180.88,1338.61,184.78Z"/><path class="cls-2" d="M306.86,184.3c-15.29,12.27-34.33,28.87-45.63,39.61l-6.1,5.85,6.18,6.75,6.21,6.75L275.2,236c9.44-8.94,28.7-25.78,38.55-33.75,4.07-3.34,7.56-6.26,7.73-6.59.4-.59-8.06-11.87-10.09-13.57C310.76,181.53,309.3,182.26,306.86,184.3Z"/><path class="cls-2" d="M798.91,245.21c-168.52,9.92-324.75,100.2-417.72,241.4-52.37,79.62-81.41,167-87.43,263.1-1.13,18.79-.49,60.51,1.23,78.89a553.16,553.16,0,0,0,18,96.86C351,1059.17,439,1172.22,560.2,1243.3c13.34,7.89,45.3,23.91,59.61,30,92.08,39,191.53,51.72,291.32,37.08a536.57,536.57,0,0,0,161.2-50.83c83.61-42,155.82-105.65,207.23-182.91,82.63-124.11,109.78-273.68,75.88-418.46-28.22-120.93-99.06-229.11-199.58-305.23A537.36,537.36,0,0,0,867.38,245.45C856.16,244.72,810.29,244.56,798.91,245.21ZM877,314.91c16.59,1.87,32.53,4.23,46.76,7.08a469.07,469.07,0,0,1,217.55,107.6c11.07,9.77,32.54,30.5,32.54,31.48,0,.41-6.67,8-14.81,16.83-43.26,47-52.78,55.55-72,65.15-14.72,7.4-31.56,14.64-36,15.62-5.53,1.21-13.34,1.3-48.8.4-15.45-.4-31.31-.49-35.21-.16l-7.16.65.65,7.4c.33,4.13.65,12.93.65,19.68,0,10.9-.24,12.53-1.77,15.45-2.6,5-4.47,6.18-19.28,13.1-17.57,8-25.21,12.93-36.84,23.26-9.44,8.26-12.77,12.28-12,14.4.33.73,0,.89-.89.59-3.41-1.3-5.94-1.38-18-.59-23.41,1.62-37.33,5.2-46.43,12-4.48,3.34-5.86,7.32-6.75,18.79-1.39,18.79-5.62,30.17-15,40.83-3,3.33-5.94,7.23-6.49,8.7C796.1,736.7,796,753,797.56,753c.49,0,12.36-1.3,26.19-2.76s28.3-3.09,32.12-3.42c11.22-.89,10.57-.08,10-12.53l-.49-10.57,11.71-11.8c6.83-7,12.28-11.8,13.18-11.8,1.87,0,21.71,19.84,21.71,21.71,0,.73-5,6.43-11.14,12.61l-11.14,11.21h10.65a95.51,95.51,0,0,0,12-.49c.73-.24,1.3-1.46,1.3-3.09,0-6.42,4.8-18.89,10.81-28.33,4.39-6.91,13.1-16.43,17.66-19.36A31.52,31.52,0,0,1,962,689c8.7.82,19.84,6.5,21.39,10.9.41,1.3.59,15.93.33,34.89-.41,31.56-.33,32.78,1.13,33.35.9.41,5.62.65,10.49.65,10.09,0,10.34-.17,20.07-7.08,10.33-7.49,16.84-10.17,45.95-19.28,15.05-4.72,26.92-10.41,34.16-16.27l5.12-4.13L1112,744.77c6.27,12.53,11.39,23,11.39,23.34s-15.29,5.78-34,12-34.32,11.46-34.89,11.71-2.11-1.95-3.5-4.64c-5.69-11.38-13-21.95-16.43-23.75-2.6-1.38-3.9,1-3.9,6.84,0,12.76,7.32,27.65,21.31,43.35,7,7.88,10.09,13.41,17.89,32,6.59,15.61,6.75,15.78,7.32,12.69.89-4.23,2-5.31,5.31-5.31,3.17,0,7.89,2.19,13.74,6.58,5.7,4.13,23.26,20.42,25,23,.81,1.14,1.87,2.11,2.43,2.11,1.31,0,46.12-44.81,46.12-46.19,0-.59-1.63-3-3.66-5.45q-6.95-8.65-4.13-12.93c2.52-3.9,5.69-4.88,17.56-5.21,15.69-.49,39.61,1.06,47.81,3.1a75.74,75.74,0,0,1,31.8,16.1l4.31,3.74-3.75,1.05c-2.19.65-4.06,1.78-4.63,2.86-2.12,3.9,3,12.76,14.4,25.2,8.29,9,12.6,15.7,15.12,23.61l1.71,5.37-1.87,7.24c-1,3.91-4.13,14.16-6.91,22.61-18.55,56.2-47.18,107.42-86.3,154.53-10.57,12.69-41.8,44.26-54.81,55.3a471.11,471.11,0,0,1-498.4,70.83c-7.8-3.5-29.44-14.17-30.17-14.81a26.25,26.25,0,0,1,.65-5.37c2.36-12.2,8-18.46,28.23-31.39,7.15-4.47,15-9.92,17.4-12.12,6.18-5.36,10.9-8.62,23.1-16.18,11.38-7,19.51-14.17,22.52-19.84,1.87-3.5,2-4.32,1.77-17.49-.16-8.71.09-14.89.66-16.59,1.14-3.5,6.26-8.95,15.53-16.92a75.33,75.33,0,0,0,10.82-11.22c9.68-13.57,18.79-40.26,20.49-60.2l.49-6.1H714.66c-34.64,0-35,0-38.55-1.87-3-1.47-4.13-2.68-6.1-6.67l-2.44-4.88-.4-22.37c-.49-21.14-.59-22.61-2.36-26.59-2.52-5.7-5.32-7.32-16.11-9.27-9.92-1.77-15-3.9-21.31-9.19-10-8.3-15.45-17.57-18.29-31.28-2.2-10.63-3.42-12.69-8-14-5.12-1.39-11.55,0-23.82,5l-10.58,4.39-72.47.24-72.46.17-.59,5c-.73,7.16-.59,14.07.33,16.43.59,1.62,4.88,4.13,21.31,12.36,27.81,14,28.79,15,41.23,42.78,3.5,7.73,10.17,21.25,14.72,29.93,10.66,20.07,14,27.25,22.77,48.88,8.38,20.58,10.9,25.7,16.68,34.48,7.24,11,11.06,14.31,20.17,17.81,9.27,3.66,12.12,6.35,13.5,12.69,1.87,8.62.73,19-4.39,39.86-4.14,16.67-9.45,36.1-10.09,36.75-.24.33-4-2-8.21-5.2a474.39,474.39,0,0,1-119.31-131.19A465.53,465.53,0,0,1,373.3,883c-3.91-17.16-4.23-19.19-2.77-19.76a96,96,0,0,1,11.31-1c16.53-.81,16.53-.81,27.33-11.3,5.53-5.37,9.92-10.33,10.81-12.28,1.39-3,1.55-5.7,1.55-25.06V791.94l22.77,11.39c12.53,6.26,23.1,11.39,23.51,11.39s.89-1.63,1.14-3.66c1.13-7.81,6.09-13.51,14.23-16.19,2.11-.73,7.48-2,11.95-3,10.17-2.12,14.56-4.13,25.78-11.88a127.76,127.76,0,0,1,14.32-8.7c5-2.36,6.1-2.52,13.18-2.43,8.78.07,13.82,1.13,28.87,6,17.89,5.78,26.92,5.21,30.49-1.71.82-1.71,2.28-7.4,3.18-12.69,1.38-8.21,2.27-11,5.77-18,4.64-9.44,11.22-17.24,16.1-19.19a32,32,0,0,1,6.67-1.71c18.14-2.68,25.06-8.38,20.66-16.92a53.59,53.59,0,0,0-6.34-7.88c-16.84-18-36.85-49.46-44.08-69.47-5.31-14.71-8.71-18.7-18.14-21.38-10.9-3.17-26.84,2.27-43.59,15-9.76,7.32-10.57,9-9.36,18.95.73,6.59.73,7.73-.59,10.41s-2.19,3.18-9.76,5.94c-12.61,4.64-23.34,6.59-33.18,6.1-12.85-.65-18.3-3.09-29.28-12.69-6.35-5.69-9.84-7.72-15.29-9.11a11.68,11.68,0,0,1-4.64-1.95c-.5-.57-.73-10.25-.65-28.47l.25-27.48,2-.59c1.14-.33,3.58-1.06,5.45-1.55,6.75-1.87,10.57-6.91,14.07-18.78a45.15,45.15,0,0,1,3.49-8.86c2-3.17,7-5.69,11.4-5.77,12.52-.08,13.66-12.28,3-33.75-6.35-12.77-11.72-19.93-16.6-22.29-2-1.06-3.74-2-3.74-2.28,0-1.7,24.73-28.87,38.8-42.53C583.6,368,686.64,321.9,799.37,313.69,814.28,312.72,863.16,313.45,877,314.91Z"/><path class="cls-2" d="M624.05,419.26c-2.61.49-4.07,2.36-4.07,5.45-.08,8.54-13.82,24.64-43.84,51.48-6.91,6.18-12.69,11.63-12.84,12.12s1.05,1.14,3,1.46c9.92,1.55,19.84,15.7,32.69,46.85,3.25,7.81,6.83,16.43,8,19.11,2,4.8,2,5.2,2.11,25.21,0,24.89-.32,24,12.36,37.09,8.3,8.54,9,9.11,11.31,8.54,2.69-.65,42.62-39.85,44.89-44,2.12-4.07,2.45-9.11,1.63-25.38-.49-8.62-.65-16.52-.32-17.57.73-3,3.82-3.82,13.34-3.82,10.08,0,17.89-1.14,22.61-3.17,1.77-.82,6.18-4.13,9.75-7.4,9.85-9,13.43-11.15,22.21-13,20.9-4.55,28.46-11,26-22-1.07-4.63-3.91-8.05-12.94-15.61-4.23-3.5-11.55-10-16.26-14.32-26.44-24.31-42.13-34.72-58.16-38.71C677.13,419.5,632.34,417.8,624.05,419.26Z"/><path class="cls-2" d="M932.37,514.66c-.9,5.69-2.19,9.11-7.16,19.19-3.25,6.76-7.23,15.7-8.78,19.93l-2.77,7.67-.08-24.4c-.08-22.12-.16-24.23-1.3-22.77-2.69,3.5-18.3,36.19-20.49,43.09-4.39,13.34-4.23,21.06.59,23.51,3,1.62,16.43,2.6,18.63,1.38,1-.59,1.77-1.47,1.77-2.12,0-.89.65-.81,3.08.59,1.63,1,3.1,1.88,3.26,2s-.9,4.55-2.28,9.84-2.84,10.33-3,11.21c-.65,2.28,20.83-19,22.12-22,.82-1.95,1-9.51.59-35.22-.24-18-.73-32.37-1.06-31.72-.81,1.31-1.38-.07-1.7-4.22C933.59,508.56,933.19,509.61,932.37,514.66Z"/><path class="cls-2" d="M842.82,613.47c-6,6-8.45,8-11,8.54-5.7,1.47-10.09,3.91-10.58,5.94-.48,1.87-1.87,23.51-1.54,24,.08.17,7.08-3.25,15.61-7.48,12-6,15.53-8.13,15.94-9.6.59-2.27.49-15.12-.25-23.26l-.49-5.93Z"/><path class="cls-2" d="M811.11,800.86c-13.83,14.88-26.92,32.21-32.21,42.54-5.12,10.08-5.53,20.41-1.3,29.44,3.33,6.91,8,12.93,20.74,26.27,14.23,14.88,16.53,18.7,24.15,40.25,8.62,24.08,16.76,33.11,34.16,37.82,7.48,2,47.17,2,58.15-.08,10-1.87,17.65-4.22,20.07-6.18l2.11-1.63.41,2.36c.25,1.23.73,7.89,1.05,14.81.66,16.59,5,39.69,14.89,79.37,4.39,17.82,6.59,30.51,6.59,38.56,0,13.82,4.79,21.55,23.6,38.3,6.5,5.86,13.34,12.39,15.3,14.56,6.58,7.4,5.77,7.24,31.31,7.24h22.42l.41-3.5c.24-1.87.59-15.12.81-29.44.41-33.59,2.36-46.12,8.3-53.92,2.68-3.5,5.61-4.73,13.34-5.45,7-.65,10.89-2,12.11-4.31a17.61,17.61,0,0,0,.9-6c0-9.68,2.44-13,11.55-15.45,6.75-1.77,8.29-3,9.76-7.08,1.3-3.75,1.3-22.37-.08-31.4-2.52-16.35-5.7-24.79-12.61-33.34-10.16-12.69-8.29-15.94,12.12-20.66a73.46,73.46,0,0,0,22.93-9.92c6.84-4.56,15-11.55,14.32-12.12-.33-.33-13.66-4.88-29.51-10.17-31.15-10.33-36.68-12.61-40.42-16.92-1.3-1.54-6-9.67-10.33-18.13-13.09-25.29-17.32-30.75-36.76-47.34-12.53-10.73-18.21-16.67-20.66-21.79-1.3-2.69-1.62-5-1.62-12.69,0-8.46-.17-9.52-1.71-10.9s-4.55-1.54-93.85-1.77L819.41,792Z"/><path class="cls-2" d="M196.25,292.06C180.39,310.94,158,339.8,158,341.26c0,.59,12,9.77,13.83,10.57.33.09,5.31-6.09,11.21-13.82s15.46-19.85,21.48-27,11.31-13.5,11.87-14.31c.9-1.22.25-2-5.77-7.25-3.83-3.16-7-5.77-7.16-5.68S200.07,287.5,196.25,292.06Z"/><path class="cls-2" d="M111,412.83C100.12,431.38,81,468,81.74,468.71c.16.16,3.82,2,8.21,4l7.89,3.66,5-9.92c6.59-13,14.88-28.47,22.86-42.29,3.57-6.26,6.26-11.47,6.09-11.63s-3.74-2.36-7.81-4.8l-7.4-4.39Z"/><path class="cls-2" d="M51.89,537.68c-6.59,17.57-16.84,49.45-22,68.16-.33,1,1.22,1.77,7.4,3.5,4.23,1.13,8.21,2.11,8.85,2.11s1.71-1.77,2.52-4.72C53,591,65.38,553.29,69,544.59c.65-1.55,1-1.39-10.41-5.53C54,537.35,52.13,536.94,51.89,537.68Z"/><path class="cls-2" d="M12.93,681.14c-1.46,5.05-7.16,46.69-9.11,66.2l-.49,5.45,5.94.49c3.34.33,7.4.73,9,1,3.5.49,3.5.49,4.31-9,.81-9.27,4.47-37.33,6.49-50,1.06-6.49,1.71-12,1.38-12.28-.59-.48-14.16-3.17-16.18-3.17C13.82,679.76,13.17,680.41,12.93,681.14Z"/><path class="cls-2" d="M.57,846.65c.59,18.22,1.3,32,2.6,48.06.59,6.27.59,6.35,2.68,5.94,1.14-.24,5.32-.65,9.19-.89l7.16-.59-.4-2.95c-1.06-7.48-2.12-27.57-2.61-47.58l-.49-21.71H0Z"/><path class="cls-2" d="M22,972.47a53,53,0,0,0-7.73,1.95c-1,1.06,9.68,49.45,15.21,69l.82,2.95,8.78-2.44,8.78-2.36-4.63-18.46c-2.52-10.09-6.18-26-8.13-35.3C32.37,974.36,31.39,971,30.41,971,29.67,971.09,26,971.74,22,972.47Z"/><path class="cls-2" d="M61.24,1113.66c-3.74,1.46-7,3-7.08,3.42-.59,1.62,12,32.12,22.93,55.62l5.53,12,4.39-2c2.45-1.14,6.27-3,8.46-4l4-2L96.61,1171c-4.31-8.46-15-32.86-20.82-47.42-3.65-9-5.53-12.77-6.42-12.69A77.82,77.82,0,0,0,61.24,1113.66Z"/><path class="cls-2" d="M127.93,1243.86c-2.44,1.55-5.69,3.5-7.16,4.4l-2.6,1.54,5.37,8.79c7,11.3,19.76,30.5,28.71,43.09l7,9.83,4.07-3c2.2-1.62,5.61-4,7.48-5.36l3.42-2.36-3.58-5c-6.1-8.3-25.78-37.82-31.23-46.69-2.85-4.55-5.53-8.29-6-8.21A30.58,30.58,0,0,0,127.93,1243.86Z"/><path class="cls-2" d="M1591.78,283.82a24.15,24.15,0,0,0-24.66-4.48,106.88,106.88,0,0,0-11,6.72l-8.47,5.68-7.43-11.07-7.43-11.06-76,51-76,51L1423.33,435l42.55,63.4,76-51,76-51-7.43-11.08L1603,374.23l8.47-5.68a106.65,106.65,0,0,0,10.4-7.67,23.88,23.88,0,0,0,5-25.18C1625.22,331.85,1594.47,286.25,1591.78,283.82Zm21,59.93c.51,4.14-.67,5.49-10.26,11.93l-8.26,5.53-14-20.92-14-20.89-4.5-2.36c-10.52-5.53-19.73-7.91-26.72-6.88a13.62,13.62,0,0,0-7.23,2.84c-3,2.11-3.54,2.62-5.85,6.76l-2.51,4.52,5.53,10.77c5.8,11.35,6.31,12.78,5.75,15.23-.17.87-6.3,13.61-13.53,28.33-12,24.5-13.33,27-15.16,28.18-3.64,2.45-4.5,2.2-23.89-7.27-25.78-12.6-25.25-12.27-25.58-17.08-.16-2,.87-4.43,8.33-19.7,18.24-37.18,18.54-37.77,20.1-38.81.91-.59,5.94-1.85,12.84-3.21l11.32-2.18.69-1.77c1.35-3.62,5.64-10.09,8.75-13.24,7.61-7.62,18.7-10.79,31.47-8.85l4,.64,3.18,4.72,3.17,4.72,8.39-5.62c9.53-6.34,10.71-6.75,14.5-4.95l2.17,1,15.54,23.14c15,22.32,15.53,23.22,15.81,25.42Zm-40.9,41.44a22.31,22.31,0,0,1,1.18,13.26,23.38,23.38,0,0,1-40,11.5,22.79,22.79,0,0,1-5.74-20.46,23.42,23.42,0,0,1,44.6-4.3Z"/><path class="cls-2" d="M1505.07,334.59c-1,.18-4.65.86-8.1,1.53l-6.19,1.18-10,20.41c-7.64,15.64-9.84,20.52-9.28,20.9.39.3,5.64,2.95,11.7,5.9l11,5.4.78-1.65c.4-.91,4.8-9.84,9.7-19.81s9-18.57,9.15-19.11c.2-.82-4.62-11.38-6.56-14.55C1507,334.48,1506,334.4,1505.07,334.59Z"/><path class="cls-2" d="M1553.59,387.1a7.62,7.62,0,0,0-11.19,7.64,9.79,9.79,0,0,0,1.19,3.61,8.25,8.25,0,0,0,7.26,3.32,9.7,9.7,0,0,0,3.62-1.18,8.27,8.27,0,0,0,3.32-7.26A7.4,7.4,0,0,0,1553.59,387.1Z"/><path class="cls-2" d="M1513.22,241.46a29.29,29.29,0,0,0-28.13-7.38l-3.58.95-56.66,38-56.66,38-2.25,3a29.47,29.47,0,0,0-5,25.28c.63,2.73,1.54,4.45,5.91,11.3l5.13,8,76-51,76-51-4.61-6.79C1516.8,246.05,1514.05,242.3,1513.22,241.46Z"/><path class="cls-2" d="M1550.6,460.41l-76.07,51,5.51,7.83c4.66,6.57,5.9,8.06,8.2,9.68a29.43,29.43,0,0,0,25.29,4.94l3.58-1,56.66-38,56.66-38,2.24-2.95a29.47,29.47,0,0,0,5-25.28c-.63-2.73-1.54-4.45-5.85-11.25l-5.17-8.06Z"/></g></svg>